:SAMPLES-PER-SECOND 30
:FULLY-SPECIFIED
:DEGREES
147
root  6.44696 36.3599 -16.2328 42.8069 -78.9289 -49.4111
RightUpLeg  -7.453 -5.42158 -4.35447
RightLeg  38.9502 -2.15459 -2.1404
RightFoot  -16.9166 0.797372 18.5153
RightToes  -5.28226e-011 1.30204e-014 -6.03759e-014
Spine  13.2891 -0.928684 -0.341201
Spine1  10.3109 -2.93921 9.4586
HEad  -23.4663 0.237067 -5.51443
LeftShoulder1  1.5765 -3.10032 -17.2704
LeftArm  -1.77733 5.5473 -40.0025
LeftForeArm  38.8301 -45.8994 -8.89804
LeftHand  0.340854 6.63144 30.4224
RightShoulder  1.57925 2.05772 22.2517
RightArm  -24.6081 -16.1083 35.3543
RightForeArm  -162.061 66.8582 160.617
RightHand  -1.99209 -0.354704 -44.0723
LeftUpLeg  -31.4286 -8.82896 9.96831
LeftLeg  103.241 -1.62331 4.9436
LeftFoot  -4.72379 0.612864 -10.0879
LeftToes  -2.42178e-010 -1.66495e-011 -2.88221e-011
148
root  6.67542 36.0504 -17.18 43.4505 -77.8169 -50.9232
RightUpLeg  -8.0025 -7.09714 -2.147
RightLeg  41.3099 -1.51477 -1.73347
RightFoot  -19.1993 1.10633 17.8609
RightToes  -5.28226e-011 1.30204e-014 -6.03759e-014
Spine  13.5922 0.361203 1.78472
Spine1  12.2779 -1.30572 9.21204
HEad  -25.7145 -3.35496 -4.62058
LeftShoulder1  2.05168 -4.67712 -18.542
LeftArm  10.2025 5.79137 -50.1306
LeftForeArm  34.2779 -36.2448 -6.17961
LeftHand  0.00481469 5.40014 25.1158
RightShoulder  1.79398 2.69595 22.8121
RightArm  -22.4527 -2.70904 45.2563
RightForeArm  -158.432 63.7658 163.056
RightHand  -1.90073 -0.524126 -43.5548
LeftUpLeg  -37.436 -7.65517 6.14659
LeftLeg  109.677 -1.61615 3.271
LeftFoot  -2.54332 0.79465 -10.1177
LeftToes  -2.42178e-010 -1.66495e-011 -2.88221e-011
149
root  6.72587 36.4266 -17.8031 45.987 -78.5052 -53.7112
RightUpLeg  -7.22599 -7.25138 -1.31013
RightLeg  39.3485 -0.989136 -1.16368
RightFoot  -17.6814 0.848706 17.373
RightToes  -5.28226e-011 1.30204e-014 -6.03759e-014
Spine  14.722 2.20146 2.69451
Spine1  10.3957 1.18635 7.78912
HEad  -25.4399 -6.07734 -1.3283
LeftShoulder1  2.37732 -5.67557 -19.4104
LeftArm  24.0627 8.86178 -56.4656
LeftForeArm  26.7567 -27.4435 -4.44014
LeftHand  -0.809741 0.954286 21.7358
RightShoulder  1.51738 2.36765 19.4244
RightArm  -21.9503 13.5168 45.3138
RightForeArm  -161.967 61.6148 164.209
RightHand  -1.65705 -0.834904 -40.7622
LeftUpLeg  -42.1431 -6.76235 2.32514
LeftLeg  109.337 -1.33381 2.63026
LeftFoot  0.149448 0.994708 -9.88595
LeftToes  -2.42178e-010 -1.66495e-011 -2.88221e-011
150
root  6.72205 37.4006 -18.12 47.2916 -80.2979 -55.2223
RightUpLeg  -4.90315 -5.73547 -1.72017
RightLeg  33.9564 -1.41402 -1.26849
RightFoot  -12.9121 0.148028 17.1293
RightToes  -5.28226e-011 1.30204e-014 -6.03759e-014
Spine  17.257 4.06578 2.64686
Spine1  6.03323 3.82605 5.22897
HEad  -24.5132 -8.69261 3.00346
LeftShoulder1  2.67491 -6.52122 -20.2534
LeftArm  32.9453 15.3795 -58.1583
LeftForeArm  16.3492 -24.1644 -4.30407
LeftHand  -1.21212 -3.90715 15.1428
RightShoulder  0.862623 0.704073 13.5105
RightArm  -30.728 27.9088 36.9786
RightForeArm  -168.139 59.9803 164.834
RightHand  -0.915215 -2.65068 -37.8897
LeftUpLeg  -44.3836 -7.20652 -1.18936
LeftLeg  103.966 -1.43979 4.13697
LeftFoot  2.44574 1.17302 -9.80142
LeftToes  -2.42178e-010 -1.66495e-011 -2.88221e-011
151
root  6.73418 38.6172 -18.1836 50.532 -81.9083 -58.4726
RightUpLeg  -2.08873 -3.6557 -2.04633
RightLeg  26.7352 -2.80897 -1.75307
RightFoot  -5.89826 -0.843049 16.8415
RightToes  -5.28226e-011 1.30204e-014 -6.03759e-014
Spine  20.3294 5.59046 4.2229
Spine1  0.874449 6.50384 0.977497
HEad  -23.6324 -12.4634 5.71675
LeftShoulder1  2.99281 -7.66666 -20.3765
LeftArm  33.7723 23.817 -56.2267
LeftForeArm  10.6049 -25.6089 -4.93055
LeftHand  -0.73317 -4.6093 8.70388
RightShoulder  0.147671 -2.49509 5.7601
RightArm  -49.9096 36.65 22.8518
RightForeArm  -176.731 63.3475 162.036
RightHand  0.0664118 -5.65978 -34.0814
LeftUpLeg  -44.1759 -8.42381 -3.54986
LeftLeg  95.8813 -1.37189 8.1009
LeftFoot  5.16221 1.49519 -10.4975
LeftToes  -2.42178e-010 -1.66495e-011 -2.88221e-011
